<svg id="Layer_1" enable-background="new 0 0 512 512" height="512" viewBox="0 0 512 512" width="512" xmlns="http://www.w3.org/2000/svg"><g><circle cx="256" cy="282" fill="#ffbecb" r="220"/><circle cx="256" cy="282" fill="#fff" r="170"/><path d="m227.716 308.284-61.716-118.284 118.284 61.716" fill="#ffbecb"/><path d="m284.284 252 61.716 118.284-118.284-61.715" fill="#fff"/><circle cx="256" cy="280" fill="#ffee80" r="40"/><circle cx="256" cy="280" fill="#fff" r="15"/><g fill="#ff5d7d"><path d="m418.634 119.365c-36.02-36.02-81.888-58.605-131.529-65.276 3.106-5.319 4.895-11.497 4.895-18.089 0-19.851-16.149-36-36-36s-36 16.149-36 36c0 6.592 1.789 12.77 4.895 18.089-49.641 6.671-95.509 29.255-131.529 65.276-43.442 43.442-67.366 101.199-67.366 162.635s23.924 119.193 67.366 162.635c43.441 43.441 101.199 67.365 162.634 67.365s119.193-23.924 162.634-67.365c43.442-43.442 67.366-101.2 67.366-162.635s-23.924-119.193-67.366-162.635zm-178.634-83.365c0-8.822 7.178-16 16-16s16 7.178 16 16-7.178 16-16 16-16-7.178-16-16zm16 456c-115.794 0-210-94.206-210-210s94.206-210 210-210 210 94.206 210 210-94.206 210-210 210z"/><path d="m256 102c-99.252 0-180 80.748-180 180 0 3.811.133 7.591.368 11.344-.233.847-.368 1.735-.368 2.656 0 1.483.332 2.886.911 4.152 9.131 90.76 85.963 161.848 179.089 161.848 99.252 0 180-80.748 180-180s-80.748-180-180-180zm10 339.678v-19.678c0-5.522-4.477-10-10-10s-10 4.478-10 10v19.678c-75.551-4.682-137.073-62.024-148.2-135.678h18.2c5.523 0 10-4.478 10-10s-4.477-10-10-10h-19.949c-.033-1.33-.051-2.663-.051-4 0-84.865 66.417-154.498 150-159.678v19.678c0 5.523 4.477 10 10 10s10-4.477 10-10v-19.678c80.274 4.976 144.703 69.404 149.678 149.678h-19.678c-5.523 0-10 4.478-10 10s4.477 10 10 10h19.678c-4.975 80.274-69.404 144.703-149.678 149.678z"/><path d="m305.037 270.156c-1.26-6.344-3.74-12.348-7.316-17.734l45.351-45.351c3.905-3.905 3.905-10.237 0-14.143-3.905-3.904-10.237-3.904-14.143 0l-45.351 45.351c-5.244-3.482-11.076-5.915-17.234-7.204l-95.718-49.941c-3.872-2.018-8.608-1.294-11.697 1.795-3.088 3.089-3.815 7.824-1.794 11.697l49.941 95.717c1.289 6.159 3.722 11.991 7.204 17.235l-45.351 45.351c-3.905 3.905-3.905 10.237 0 14.143 1.953 1.952 4.512 2.929 7.071 2.929s5.119-.977 7.071-2.929l45.35-45.351c5.016 3.331 10.571 5.696 16.434 7.025.224.14.449.279.687.404l95.831 50.001c1.463.763 3.049 1.134 4.623 1.134 2.592 0 5.152-1.007 7.074-2.929 3.088-3.089 3.815-7.824 1.794-11.697zm-49.037 39.844c-8.013 0-15.547-3.12-21.213-8.787-5.666-5.666-8.787-13.2-8.787-21.213s3.121-15.547 8.787-21.213c5.666-5.667 13.2-8.787 21.213-8.787s15.547 3.12 21.213 8.787c5.667 5.666 8.787 13.2 8.787 21.213s-3.121 15.547-8.787 21.213c-5.666 5.667-13.2 8.787-21.213 8.787zm-23.627-74.09c-4.261 2.291-8.211 5.217-11.729 8.734-3.517 3.518-6.444 7.468-8.734 11.729l-22.325-42.788zm46.982 88.322c4.365-2.311 8.409-5.285 12-8.876 3.479-3.479 6.378-7.384 8.657-11.593l22.402 42.936z"/></g></g></svg>