<svg id="Layer_1" enable-background="new 0 0 512 512" height="512" viewBox="0 0 512 512" width="512" xmlns="http://www.w3.org/2000/svg"><g><circle cx="255.998" cy="256" fill="#d0f2d2" r="150"/><circle cx="255.998" cy="256" fill="#ffee80" r="100"/><g fill="#fff"><circle cx="255.998" cy="40" r="30"/><circle cx="255.998" cy="472" r="30"/><circle cx="255.998" cy="40" r="30"/><circle cx="255.998" cy="472" r="30"/><circle cx="68.936" cy="148.005" r="30"/><circle cx="443.064" cy="147.995" r="30"/><circle cx="68.936" cy="364.005" r="30"/><circle cx="443.064" cy="363.995" r="30"/></g><g fill="#5cd0b3"><path d="m275.998 226.503c5.522 0 10-4.477 10-10 0-5.522-4.478-10-10-10h-10v-9.996c0-5.522-4.478-10-10-10-5.523 0-10 4.478-10 10v9.996h-10c-5.523 0-10 4.478-10 10v40c0 5.522 4.477 10 10 10h30v20h-30c-5.523 0-10 4.478-10 10s4.477 10 10 10h10v8.99c0 5.522 4.477 10 10 10s10-4.478 10-10v-8.99h10c5.522 0 10-4.478 10-10v-40c0-5.522-4.478-10-10-10h-30v-20z"/><path d="m443.064 323.995c-11.159 0-21.26 4.598-28.523 11.993l-15.273-8.818c10.698-21.449 16.73-45.617 16.73-71.17s-6.031-49.721-16.73-71.17l15.28-8.822c7.262 7.391 17.361 11.987 28.517 11.987 22.056 0 40-17.944 40-40s-17.944-40-40-40-40 17.944-40 40c0 3.707.518 7.294 1.466 10.703l-15.288 8.827c-26.964-40.474-71.857-68.018-123.244-71.203v-17.588c17.233-4.452 30-20.13 30-38.734 0-22.056-17.944-40-40-40s-40 17.944-40 40c0 18.604 12.767 34.282 30 38.734v17.588c-51.387 3.185-96.279 30.729-123.244 71.203l-15.282-8.823c.947-3.407 1.464-6.992 1.464-10.697 0-22.056-17.944-40-40-40s-40 17.944-40 40 17.944 40 40 40c11.158 0 21.259-4.597 28.521-11.992l15.27 8.816c-10.698 21.449-16.73 45.617-16.73 71.17s6.032 49.721 16.73 71.17l-15.276 8.82c-7.262-7.391-17.36-11.985-28.515-11.985-22.056 0-40 17.944-40 40s17.944 40 40 40 40-17.944 40-40c0-3.708-.518-7.295-1.467-10.705l15.284-8.825c26.964 40.474 71.857 68.018 123.244 71.203v17.587c-17.233 4.452-30 20.13-30 38.734 0 22.056 17.944 40 40 40s40-17.944 40-40c0-18.604-12.767-34.282-30-38.734v-17.587c51.387-3.185 96.28-30.729 123.244-71.203l15.286 8.826c-.947 3.406-1.464 6.99-1.464 10.694 0 22.056 17.944 40 40 40s40-17.944 40-40c0-22.054-17.944-39.999-40-39.999zm0-196c11.028 0 20 8.972 20 20s-8.972 20-20 20-20-8.972-20-20 8.972-20 20-20zm-374.128 40.01c-11.028 0-20-8.972-20-20s8.972-20 20-20 20 8.972 20 20-8.972 20-20 20zm0 216c-11.028 0-20-8.972-20-20s8.972-20 20-20 20 8.972 20 20-8.972 20-20 20zm327.062-128.005c0 21.914-5.066 42.665-14.081 61.152l-26.062-15.047c6.504-14.031 10.143-29.65 10.143-46.105s-3.638-32.075-10.143-46.106l26.062-15.047c9.015 18.488 14.081 39.239 14.081 61.153zm-140 90c-49.626 0-90-40.374-90-90s40.374-90 90-90 90 40.374 90 90-40.374 90-90 90zm115.893-168.458-26.06 15.046c-18.126-25.604-46.91-43.147-79.833-46.128v-30.099c44.001 3.121 82.449 26.661 105.893 61.181zm-135.893-137.542c0-11.028 8.972-20 20-20s20 8.972 20 20-8.972 20-20 20-20-8.972-20-20zm10 76.361v30.099c-32.924 2.981-61.707 20.525-79.833 46.128l-26.06-15.046c23.444-34.52 61.891-58.06 105.893-61.181zm-130 139.639c0-21.914 5.066-42.665 14.081-61.153l26.062 15.047c-6.504 14.031-10.143 29.65-10.143 46.106 0 16.455 3.638 32.075 10.143 46.105l-26.062 15.047c-9.015-18.487-14.081-39.238-14.081-61.152zm24.106 78.458 26.06-15.046c18.126 25.603 46.91 43.147 79.833 46.128v30.099c-44.001-3.12-82.448-26.661-105.893-61.181zm135.894 137.542c0 11.028-8.972 20-20 20s-20-8.972-20-20 8.972-20 20-20 20 8.972 20 20zm-10-76.361v-30.099c32.924-2.981 61.707-20.525 79.833-46.128l26.06 15.046c-23.444 34.52-61.892 58.061-105.893 61.181zm177.066-11.644c-11.028 0-20-8.972-20-20s8.972-20 20-20 20 8.972 20 20-8.972 20-20 20z"/></g></g></svg>